<?xml version="1.0" encoding="UTF-8" standalone="no"?>
<svg width="727px" height="729px" viewBox="0 0 727 729" version="1.1" xmlns="http://www.w3.org/2000/svg" xmlns:xlink="http://www.w3.org/1999/xlink">
    <!-- Generator: Sketch 40.3 (33839) - http://www.bohemiancoding.com/sketch -->
    <title>Shape</title>
    <desc>Created with Sketch.</desc>
    <defs></defs>
    <g id="Page-1" stroke="none" stroke-width="1" fill="none" fill-rule="evenodd">
        <path d="M619,135 L236.5,135 C218.65,135 205.9,142.65 195.7,157.95 L58,364.5 L195.7,571.05 C205.9,583.8 218.65,594 236.5,594 L619,594 C647.05,594 670,571.05 670,543 L670,186 C670,157.95 647.05,135 619,135 L619,135 Z M542.5,456.3 L506.8,492 L415,400.2 L323.2,492 L287.5,456.3 L379.3,364.5 L287.5,272.7 L323.2,237 L415,328.8 L506.8,237 L542.5,272.7 L450.7,364.5 L542.5,456.3 L542.5,456.3 Z" id="Shape" fill="#000000"></path>
    </g>
</svg>