<?xml version="1.0" encoding="UTF-8" standalone="no"?>
<svg width="20px" height="20px" viewBox="0 0 20 20" version="1.1" xmlns="http://www.w3.org/2000/svg" xmlns:xlink="http://www.w3.org/1999/xlink">
    <!-- Generator: Sketch 40.3 (33839) - http://www.bohemiancoding.com/sketch -->
    <title>Slice 1</title>
    <desc>Created with Sketch.</desc>
    <defs></defs>
    <g id="Page-1" stroke="none" stroke-width="1" fill="none" fill-rule="evenodd">
        <path d="M9,9 L4.00684547,9 C3.44994876,9 3,9.44771525 3,10 C3,10.5561352 3.45078007,11 4.00684547,11 L9,11 L9,15.9931545 C9,16.5500512 9.44771525,17 10,17 C10.5561352,17 11,16.5492199 11,15.9931545 L11,11 L15.9931545,11 C16.5500512,11 17,10.5522847 17,10 C17,9.44386482 16.5492199,9 15.9931545,9 L11,9 L11,4.00684547 C11,3.44994876 10.5522847,3 10,3 C9.44386482,3 9,3.45078007 9,4.00684547 L9,9 Z" id="Combined-Shape" fill="#000000"></path>
    </g>
</svg>