<?xml version="1.0" encoding="UTF-8" standalone="no"?>
<svg width="1536px" height="1536px" viewBox="0 0 1536 1536" version="1.1" xmlns="http://www.w3.org/2000/svg" xmlns:xlink="http://www.w3.org/1999/xlink">
    <!-- Generator: Sketch 40.3 (33839) - http://www.bohemiancoding.com/sketch -->
    <title>Shape</title>
    <desc>Created with Sketch.</desc>
    <defs></defs>
    <g id="Page-1" stroke="none" stroke-width="1" fill="none" fill-rule="evenodd">
        <path d="M1284,606 C1284,587.333333 1278,572 1266,560 L1175,470 C1162.33333,457.333333 1147.33333,451 1130,451 C1112.66667,451 1097.66667,457.333333 1085,470 L677,877 L451,651 C438.333333,638.333333 423.333333,632 406,632 C388.666667,632 373.666667,638.333333 361,651 L270,741 C258,753 252,768.333333 252,787 C252,805 258,820 270,832 L632,1194 C644.666667,1206.66667 659.666667,1213 677,1213 C695,1213 710.333333,1206.66667 723,1194 L1266,651 C1278,639 1284,624 1284,606 L1284,606 Z M1536,768 C1536,907.333333 1501.66667,1035.83333 1433,1153.5 C1364.33333,1271.16667 1271.16667,1364.33333 1153.5,1433 C1035.83333,1501.66667 907.333333,1536 768,1536 C628.666667,1536 500.166667,1501.66667 382.5,1433 C264.833333,1364.33333 171.666667,1271.16667 103,1153.5 C34.3333333,1035.83333 0,907.333333 0,768 C0,628.666667 34.3333333,500.166667 103,382.5 C171.666667,264.833333 264.833333,171.666667 382.5,103 C500.166667,34.3333333 628.666667,0 768,0 C907.333333,0 1035.83333,34.3333333 1153.5,103 C1271.16667,171.666667 1364.33333,264.833333 1433,382.5 C1501.66667,500.166667 1536,628.666667 1536,768 L1536,768 Z" id="Shape" fill="#000000"></path>
    </g>
</svg>