<?xml version="1.0" encoding="UTF-8" standalone="no"?>
<svg width="1536px" height="1536px" viewBox="0 0 1536 1536" version="1.1" xmlns="http://www.w3.org/2000/svg" xmlns:xlink="http://www.w3.org/1999/xlink">
    <!-- Generator: Sketch 40.3 (33839) - http://www.bohemiancoding.com/sketch -->
    <title>Shape</title>
    <desc>Created with Sketch.</desc>
    <defs></defs>
    <g id="Page-1" stroke="none" stroke-width="1" fill="none" fill-rule="evenodd">
        <path d="M1216,832 L1216,704 C1216,686.666667 1209.66667,671.666667 1197,659 C1184.33333,646.333333 1169.33333,640 1152,640 L896,640 L896,384 C896,366.666667 889.666667,351.666667 877,339 C864.333333,326.333333 849.333333,320 832,320 L704,320 C686.666667,320 671.666667,326.333333 659,339 C646.333333,351.666667 640,366.666667 640,384 L640,640 L384,640 C366.666667,640 351.666667,646.333333 339,659 C326.333333,671.666667 320,686.666667 320,704 L320,832 C320,849.333333 326.333333,864.333333 339,877 C351.666667,889.666667 366.666667,896 384,896 L640,896 L640,1152 C640,1169.33333 646.333333,1184.33333 659,1197 C671.666667,1209.66667 686.666667,1216 704,1216 L832,1216 C849.333333,1216 864.333333,1209.66667 877,1197 C889.666667,1184.33333 896,1169.33333 896,1152 L896,896 L1152,896 C1169.33333,896 1184.33333,889.666667 1197,877 C1209.66667,864.333333 1216,849.333333 1216,832 L1216,832 Z M1536,768 C1536,907.333333 1501.66667,1035.83333 1433,1153.5 C1364.33333,1271.16667 1271.16667,1364.33333 1153.5,1433 C1035.83333,1501.66667 907.333333,1536 768,1536 C628.666667,1536 500.166667,1501.66667 382.5,1433 C264.833333,1364.33333 171.666667,1271.16667 103,1153.5 C34.3333333,1035.83333 0,907.333333 0,768 C0,628.666667 34.3333333,500.166667 103,382.5 C171.666667,264.833333 264.833333,171.666667 382.5,103 C500.166667,34.3333333 628.666667,0 768,0 C907.333333,0 1035.83333,34.3333333 1153.5,103 C1271.16667,171.666667 1364.33333,264.833333 1433,382.5 C1501.66667,500.166667 1536,628.666667 1536,768 L1536,768 Z" id="Shape" fill="#000000"></path>
    </g>
</svg>